<?xml version="1.0" encoding="utf-8"?>
<!-- Generator: Adobe Illustrator 18.0.0, SVG Export Plug-In . SVG Version: 6.00 Build 0)  -->
<!DOCTYPE svg PUBLIC "-//W3C//DTD SVG 1.1//EN" "http://www.w3.org/Graphics/SVG/1.1/DTD/svg11.dtd">
<svg version="1.1" id="Layer_1" xmlns="http://www.w3.org/2000/svg" xmlns:xlink="http://www.w3.org/1999/xlink" x="0px" y="0px"
	 viewBox="0 0 120 121.0845184" enable-background="new 0 0 120 121.0845184" xml:space="preserve">
<g>
	<path d="M81.5390778,72.4666443c-2.7583618-0.5857162-5.5289841-1.1195679-8.2721634-1.76931
		c-4.0903854-0.9688263-8.1642227-2.0083084-12.2368431-3.0499954c-0.4776497-0.1221619-0.6921272,0.0015869-0.9247894,0.3836823
		c-3.0235367,4.9655075-6.0584488,9.9240799-9.0909767,14.8841095c-0.0913124,0.1493607-0.1878815,0.295517-0.372715,0.5854416
		c-0.4017754-1.762558-0.7929382-3.3711166-1.1329689-4.9904099c-0.9955254-4.7409973-1.6467209-9.5329361-2.0341759-14.3599014
		c-0.0392799-0.489399-0.2211838-0.6799049-0.6615334-0.8457985c-4.5979118-1.7322273-9.1879349-3.485466-13.7747192-5.2470093
		c-0.712841-0.2737694-1.3984108-0.6185417-2.237051-0.9932365c1.0955296-0.5209084,2.0436954-1.0112114,3.0223713-1.4302711
		c4.2759171-1.8309174,8.5578308-3.647953,12.8470078-5.4475327c0.3930283-0.1648979,0.5332718-0.3599205,0.5781288-0.779541
		c0.4081306-3.8186035,0.7697411-7.6446457,1.301487-11.4466209c0.3030243-2.1666031,0.8956718-4.29282,1.3630371-6.4361019
		c0.0413208-0.1894875,0.1208229-0.3706512,0.2160645-0.6559238c0.3155212,0.5464058,0.5606728,1.0108757,0.8421402,1.452179
		c2.7326012,4.2843971,5.4743385,8.5629768,8.2023811,12.8502731c0.2149544,0.3378105,0.4164276,0.3855667,0.7947083,0.2617378
		c6.5098038-2.130928,13.1022568-3.9657784,19.7843323-5.4754333c0.1553192-0.0350914,0.3130112-0.0597649,0.5211258-0.0990105
		c-4.2031555,5.6359367-8.3711624,11.2247353-12.541893,16.8171844c4.3880615,5.5277748,8.9803085,10.7133942,13.8691025,15.6376419
		C81.580452,72.3640823,81.559761,72.4153671,81.5390778,72.4666443z"/>
	<path d="M105.3883896,93.4971237c-1.081604-1.6291122-2.359436-2.9768066-3.8762665-4.1054916
		c-0.4041977-0.3007584-0.6768188-0.3202896-1.1038971-0.0202255c-4.1036606,2.8831406-10.0940475,5.4360657-14.5587769,6.2588425
		c2.517128-3.8027725,5.0615005-7.6466751,7.6417465-11.5448074c-4.3871689-3.3953552-8.076973-7.2984467-11.625412-11.5364456
		c0.8468857,0.0765381,1.5781021,0.1365128,2.3079987,0.2095795c4.9952316,0.5001221,9.9896088,0.5168381,14.9788818-0.0599136
		c0.2289352-0.0264664,0.5190659-0.3018951,0.6212234-0.5321274c2.1413803-4.8255386,4.2666779-9.658268,6.3766785-14.4976311
		c0.4181976-0.9591331,0.7602386-1.951458,1.1933289-2.9222908c0.8863144,5.0952988,1.4007339,10.2209244,1.7175903,15.6044769
		c1.4115601-0.8762054,2.7548981-1.5671158,3.927124-2.4782028c1.155777-0.8983078,2.1383057-2.0195236,3.2419205-3.086525
		c-0.3263397,1.3246536-0.6026535,2.6697235-0.9909821,3.9816437c-1.3155746,4.4446945-3.3595352,8.5296173-6.1003799,12.2747498
		c-0.29496,0.4030228-0.3431473,1.01754-0.4171219,1.5463562c-0.486351,3.476532-1.2288361,6.8781281-2.8177185,10.0438538
		c-0.1001282,0.1995087-0.21138,0.3935776-0.3216858,0.5877762
		C105.5436783,93.2893448,105.4920654,93.350769,105.3883896,93.4971237z"/>
	<path d="M24.2828598,83.3082352c0.7580051,0.6617279,1.4874382,1.3599854,2.2789497,1.9788666
		c3.4749107,2.7169724,6.9706459,5.4072723,10.4491692,8.1196518c0.3120461,0.2433167,0.5335655,0.2196884,0.8559761,0.0227127
		c4.3548431-2.6604767,8.366375-5.7695618,12.1155624-9.2243423c0.1494865-0.1377487,0.2997894-0.2747498,0.4539108-0.4072037
		c0.0256615-0.0220718,0.0729675-0.0189514,0.1796455-0.0433121c-0.1941681,1.0774231-0.4259377,2.1207809-0.5647812,3.1763611
		c-0.5670624,4.3111801-1.1015205,8.6266479-1.6605453,12.9389114c-0.0640411,0.4939957,0.0965042,0.7641678,0.5507622,0.9870987
		c3.7731819,1.8516846,7.5347939,3.7269516,11.2994881,5.5959396c0.0686722,0.0340958,0.1321983,0.0785446,0.1981277,0.1181564
		c-0.0013199,0.0635452-0.0026398,0.1270981-0.0039558,0.1906433c-4.02034,0.1765213-8.0406799,0.3530426-12.1131058,0.5318527
		c0.1904221,2.7994232,0.4599075,5.5983887,1.848774,8.2384109c-1.7775002-0.4191895-3.3760719-1.0917511-4.8984489-1.9444351
		c-3.1615562-1.7707977-5.8141403-4.1551971-8.1698799-6.8828888c-0.3240852-0.3752594-0.6643562-0.5838165-1.159481-0.6768799
		c-5.003294-0.9403229-9.8396931-2.3639908-14.1624699-5.1605453c-1.0465298-0.6770401-2.0007381-1.4967728-2.9563427-2.3413315
		c4.0055618,0.7103195,7.7856026-0.0063705,11.5789967-1.41819C27.94063,92.6755371,25.8500824,88.1197357,24.2828598,83.3082352z"
		/>
	<path d="M107.2498016,54.1627121c-0.1981125-0.3899193-0.3940201-0.7809677-0.5946655-1.1695709
		c-2.7091904-5.2474442-5.8120499-10.2524185-9.2473907-15.0544777c-0.2470627-0.3453598-0.5077896-0.4374161-0.9125824-0.424057
		c-5.0573349,0.1669273-10.0259781,0.9795837-14.9639893,2.023201c-0.2757797,0.0582848-0.5523148,0.1128807-0.9738083,0.1988258
		c3.3356628-3.6925621,6.3601532-7.4629211,8.9238815-11.615551c-4.3258286-4.7522793-9.0249481-9.0130939-14.3300171-12.6207943
		c2.0704193,0.0925846,4.0866928,0.4911404,6.0704346,1.0056248c2.0223236,0.5244884,4.0341797,1.115099,6.0038757,1.8093662
		c1.9485397,0.6868114,3.8386993,1.5392532,5.8229675,2.3469296c0.5983505-1.8660164,0.9333954-3.794157,0.7435226-5.8625641
		c0.2246399,0.2209883,0.4541397,0.4372845,0.6732101,0.6636744c2.8981018,2.9950609,5.1247406,6.4512587,7.0084152,10.1493158
		c0.240097,0.4713726,0.5858536,0.9296265,0.9867325,1.2721786c4.4390335,3.7932568,7.9572601,8.2873974,10.4397888,13.5811253
		c0.0685577,0.1462097,0.1305466,0.2955551,0.1927948,0.4446144c0.0059586,0.014267-0.0080948,0.0368996-0.0252686,0.1044922
		c-2.1163788-1.6219559-4.5571213-2.3912468-7.1110611-2.8899002c0.3766098,2.7123222,0.8361206,5.3501434,1.0856552,8.007679
		c0.2493362,2.6553001,0.2885513,5.3303337,0.4198761,7.9967155
		C107.3913803,54.1405983,107.3205795,54.1516571,107.2498016,54.1627121z"/>
	<path d="M50.0717201,30.7349224c-3.2692871-3.469553-6.088932-7.1270485-8.3322716-11.2686939
		c-4.8465881,1.3250618-9.5374031,3.0008335-14.0767899,5.1504135c3.1649609-4.1122513,7.0070572-7.4974823,11.2912903-10.4830465
		c-0.9938278-1.8164263-1.9729271-3.5883541-3.6585732-5.0515862c1.2078476-0.2048655,2.2922058-0.423625,3.3863716-0.5679436
		c3.5209503-0.464406,7.054245-0.5051222,10.5968819-0.2909508c0.5250244,0.0317392,1.0919952-0.0772409,1.5910416-0.2563252
		c4.0345192-1.4478278,8.1678162-2.4877796,12.4371452-2.8766575c2.4467316-0.2228632,4.9115829-0.2468538,7.3683853-0.3582511
		c0.1960602-0.0088897,0.3928604-0.0011716,0.6074753,0.0604095c-3.5361252,1.2220311-6.7070312,3.0476022-9.6364555,5.5142784
		c4.4978676,1.2488918,8.7543068,2.8643951,12.8370476,5.0268984c-0.1682281,0-0.3364487,0.0001764-0.5046768-0.0000267
		c-5.5400772-0.0066643-11.0521507,0.3888359-16.5546684,1.0288086c-1.1224823,0.1305504-1.7531052,0.5654373-2.3148842,1.494791
		c-2.315815,3.8310909-3.9048805,7.9379272-4.8837357,12.2936859
		C50.1900406,30.3076534,50.1438141,30.4621181,50.0717201,30.7349224z"/>
	<path d="M30.6845284,57.0956039c-0.8159542,0.6947899-1.5275764,1.2858734-2.2230034,1.8954239
		c-3.4177685,2.9957199-6.5873814,6.2321091-9.4686928,9.7501602c-0.2976532,0.3634262-0.3797855,0.6748886-0.2415752,1.1443787
		c1.3226891,4.4930649,2.9462528,8.8636322,5.1570568,13.0339813c-3.554718-1.904274-6.8876114-4.1414261-10.172966-6.7235641
		c-0.7710466,1.6409912-1.5722752,3.1677094-2.2126007,4.7591705c-0.6398487,1.5903015-1.1186981,3.2453842-1.8115396,4.9329376
		c-0.5292263-1.8479004-1.1388111-3.6772842-1.5698833-5.5478058c-0.7523561-3.2646179-0.9706345-6.5890961-0.8689847-9.9377518
		c0.0092854-0.3059235-0.143651-0.6689606-0.3338342-0.9202805c-1.2829762-1.6954346-2.3821712-3.4859848-3.0989051-5.501503
		c-0.1490688-0.4192009-0.0595889-0.6713753,0.2598696-0.941246c1.2919044-1.0913658,2.7823305-1.8253136,4.344523-2.4229202
		c0.3820801-0.1461678,0.5718536-0.3536911,0.6913443-0.7463608c1.273653-4.1855583,3.1454525-8.0960922,5.479682-11.7901878
		c0.1072769-0.1697578,0.2238684-0.3336258,0.3520851-0.523922c0.402813,3.6453934,0.8018169,7.2563248,1.2084827,10.9366341
		C21.0300636,57.6425247,25.7737789,57.2658844,30.6845284,57.0956039z"/>
	<path d="M59.9484253,116.3493118c3.1348572-0.7362366,6.0100174-2.0666733,8.8359909-3.8041077
		c-2.9724274-1.5575867-5.526825-3.5324402-8.0018578-5.8476639c1.3423843,0.1420975,2.5391769,0.2892227,3.7397423,0.3920364
		c3.6122742,0.3093491,7.2299423,0.4184952,10.8513794,0.1944046c0.2279968-0.0141144,0.4805908-0.1892395,0.6594315-0.3562088
		c3.3737183-3.1495209,6.3263321-6.6641541,8.9981384-10.4206467c0.1389542-0.1953735,0.2834396-0.3868256,0.5219574-0.7116699
		c0.5051956,3.5136108,0.3957062,6.8535385-0.2794189,10.2871399c4.8041534-0.9690475,9.2927628-2.5695801,13.5510178-5.2057724
		C91.1746674,108.6489182,76.6253891,116.6133499,59.9484253,116.3493118z"/>
	<path d="M14.7980928,47.1998711c-1.3467007-2.3047371-2.6934099-4.6094704-4.0623779-6.9523048
		c-2.3271875,2.8551369-4.4474173,5.911953-6.0875382,9.3503075c-0.4042063-2.5691299,3.5246711-13.22509,6.9015174-18.7158756
		c3.5325336-5.7439289,7.8868637-10.769949,13.2026844-14.9502354c-2.1389866,3.0772381-3.9088459,6.3447247-5.3780479,9.9210815
		c2.625906-0.5745068,5.1743679-0.9773159,7.8224373-0.8992844c-0.3118038,0.2369804-0.6341248,0.4614334-0.9337902,0.7128754
		c-3.021349,2.5351048-6.0453205,5.0671978-9.0467567,7.6257057c-0.2677021,0.2282028-0.4689369,0.6147308-0.5547352,0.9636993
		c-1.0038576,4.0831604-1.5077829,8.2330933-1.5924559,12.4354401c-0.0027351,0.1352844-0.0143461,0.2703934-0.0218134,0.4055824
		C14.9641752,47.1311989,14.881134,47.165535,14.7980928,47.1998711z"/>
</g>
</svg>
