<?xml version="1.0" encoding="utf-8"?>
<!-- Generator: Adobe Illustrator 16.0.0, SVG Export Plug-In . SVG Version: 6.00 Build 0)  -->
<!DOCTYPE svg PUBLIC "-//W3C//DTD SVG 1.1//EN" "http://www.w3.org/Graphics/SVG/1.1/DTD/svg11.dtd">
<svg version="1.1" id="Layer_1" xmlns="http://www.w3.org/2000/svg" xmlns:xlink="http://www.w3.org/1999/xlink" x="0px" y="0px"
	 width="640px" height="480px" viewBox="0 0 640 480" enable-background="new 0 0 640 480" xml:space="preserve">
<g>
	<radialGradient id="SVGID_1_" cx="304.939" cy="226.689" r="102.5215" gradientUnits="userSpaceOnUse">
		<stop  offset="1" style="stop-color:#FF0000"/>
		<stop  offset="1" style="stop-color:#FF0000"/>
	</radialGradient>
	<path fill="url(#SVGID_1_)" d="M405.385,287.271c-10.935-2.322-21.918-4.438-32.793-7.016c-16.215-3.84-32.363-7.961-48.508-12.09
		c-1.895-0.484-2.744,0.006-3.667,1.521c-11.986,19.685-24.017,39.341-36.039,59.003c-0.362,0.593-0.745,1.172-1.477,2.32
		c-1.593-6.986-3.144-13.362-4.492-19.783c-3.946-18.794-6.528-37.79-8.063-56.925c-0.156-1.938-0.877-2.695-2.623-3.354
		c-18.227-6.866-36.422-13.816-54.605-20.799c-2.826-1.085-5.543-2.452-8.868-3.938c4.343-2.065,8.102-4.009,11.981-5.67
		c16.95-7.258,33.925-14.461,50.928-21.595c1.558-0.654,2.114-1.427,2.292-3.09c1.618-15.138,3.051-30.305,5.159-45.376
		c1.201-8.589,3.55-17.018,5.403-25.514c0.164-0.751,0.479-1.469,0.856-2.6c1.251,2.166,2.223,4.007,3.338,5.756
		c10.833,16.984,21.701,33.945,32.516,50.941c0.852,1.339,1.651,1.528,3.15,1.038c25.807-8.447,51.939-15.721,78.43-21.706
		c0.615-0.139,1.24-0.237,2.064-0.393c-16.662,22.342-33.186,44.497-49.719,66.666c17.396,21.913,35.6,42.47,54.979,61.99
		C405.549,286.863,405.467,287.066,405.385,287.271z"/>
	<radialGradient id="SVGID_2_" cx="474.793" cy="298.0615" r="74.8535" gradientUnits="userSpaceOnUse">
		<stop  offset="1" style="stop-color:#FF0000"/>
		<stop  offset="1" style="stop-color:#FF0000"/>
	</radialGradient>
	<path fill="url(#SVGID_2_)" d="M499.928,370.639c-4.288-6.458-9.354-11.801-15.366-16.273c-1.603-1.192-2.684-1.271-4.376-0.08
		c-16.268,11.429-40.015,21.549-57.714,24.811c9.979-15.074,20.064-30.313,30.293-45.766c-17.392-13.46-32.019-28.933-46.085-45.732
		c3.357,0.305,6.256,0.541,9.149,0.832c19.802,1.981,39.601,2.049,59.379-0.238c0.907-0.104,2.058-1.196,2.463-2.109
		c8.488-19.129,16.913-38.287,25.278-57.471c1.657-3.802,3.014-7.736,4.729-11.584c3.514,20.199,5.554,40.518,6.81,61.86
		c5.596-3.475,10.921-6.213,15.566-9.824c4.582-3.562,8.478-8.006,12.853-12.235c-1.293,5.252-2.389,10.584-3.928,15.784
		c-5.217,17.619-13.318,33.813-24.185,48.658c-1.169,1.599-1.36,4.033-1.653,6.131c-1.928,13.78-4.87,27.267-11.17,39.814
		c-0.396,0.791-0.838,1.562-1.274,2.33C500.543,369.815,500.339,370.059,499.928,370.639z"/>
	<radialGradient id="SVGID_3_" cx="239.2539" cy="394.1191" r="73.7672" gradientUnits="userSpaceOnUse">
		<stop  offset="1" style="stop-color:#FF0000"/>
		<stop  offset="1" style="stop-color:#FF0000"/>
	</radialGradient>
	<path fill="url(#SVGID_3_)" d="M178.411,330.248c3.005,2.623,5.896,5.392,9.034,7.845c13.775,10.771,27.633,21.437,41.422,32.188
		c1.237,0.965,2.115,0.871,3.393,0.09c17.263-10.546,33.166-22.871,48.028-36.566c0.592-0.546,1.188-1.089,1.799-1.613
		c0.102-0.089,0.289-0.075,0.712-0.173c-0.77,4.271-1.688,8.407-2.239,12.593c-2.248,17.09-4.367,34.196-6.583,51.292
		c-0.254,1.958,0.382,3.028,2.183,3.913c14.958,7.341,29.869,14.773,44.793,22.184c0.271,0.135,0.523,0.312,0.785,0.468
		c-0.006,0.252-0.01,0.504-0.016,0.756c-15.938,0.7-31.875,1.399-48.019,2.108c0.755,11.098,1.823,22.193,7.329,32.658
		c-7.046-1.661-13.383-4.327-19.418-7.708c-12.533-7.021-23.048-16.473-32.387-27.284c-1.285-1.488-2.634-2.314-4.597-2.685
		c-19.833-3.728-39.006-9.37-56.142-20.456c-4.149-2.686-7.932-5.935-11.72-9.281c15.879,2.814,30.864-0.025,45.901-5.622
		C192.911,367.382,184.624,349.322,178.411,330.248z"/>
	<radialGradient id="SVGID_4_" cx="455.2705" cy="136.6895" r="76.6262" gradientUnits="userSpaceOnUse">
		<stop  offset="1" style="stop-color:#FF0000"/>
		<stop  offset="1" style="stop-color:#FF0000"/>
	</radialGradient>
	<path fill="url(#SVGID_4_)" d="M507.307,214.71c-0.784-1.546-1.563-3.096-2.356-4.636c-10.74-20.802-23.04-40.643-36.658-59.679
		c-0.979-1.369-2.013-1.734-3.618-1.681c-20.048,0.662-39.744,3.883-59.318,8.021c-1.094,0.231-2.189,0.447-3.86,0.788
		c13.224-14.638,25.213-29.584,35.376-46.046c-17.148-18.839-35.777-35.729-56.807-50.031c8.207,0.367,16.199,1.947,24.063,3.986
		c8.017,2.08,15.992,4.42,23.8,7.173c7.726,2.723,15.218,6.102,23.083,9.304c2.372-7.397,3.7-15.041,2.947-23.24
		c0.891,0.876,1.801,1.733,2.669,2.631c11.488,11.873,20.315,25.574,27.783,40.233c0.951,1.869,2.322,3.686,3.911,5.043
		c17.597,15.037,31.544,32.853,41.385,53.838c0.271,0.58,0.518,1.171,0.765,1.763c0.023,0.056-0.031,0.146-0.101,0.414
		c-8.391-6.43-18.064-9.479-28.189-11.456c1.493,10.752,3.315,21.209,4.305,31.744c0.988,10.526,1.145,21.13,1.665,31.701
		C507.867,214.623,507.587,214.667,507.307,214.71z"/>
	<radialGradient id="SVGID_5_" cx="284.6123" cy="70.2925" r="75.0642" gradientUnits="userSpaceOnUse">
		<stop  offset="1" style="stop-color:#FF0000"/>
		<stop  offset="1" style="stop-color:#FF0000"/>
	</radialGradient>
	<path fill="url(#SVGID_5_)" d="M280.643,121.838c-12.96-13.754-24.138-28.252-33.031-44.671
		c-19.212,5.253-37.808,11.896-55.803,20.417c12.546-16.301,27.777-29.721,44.761-41.557c-3.94-7.201-7.821-14.225-14.503-20.025
		c4.788-0.812,9.087-1.679,13.424-2.251c13.958-1.841,27.964-2.002,42.008-1.153c2.082,0.126,4.329-0.306,6.307-1.016
		c15.994-5.739,32.379-9.862,49.303-11.403c9.699-0.883,19.471-0.979,29.209-1.42c0.777-0.035,1.559-0.004,2.408,0.24
		c-14.018,4.844-26.588,12.081-38.201,21.859c17.832,4.951,34.705,11.355,50.89,19.928c-0.667,0-1.334,0-2,0
		c-21.963-0.026-43.813,1.542-65.626,4.079c-4.45,0.518-6.95,2.242-9.177,5.926c-9.18,15.187-15.479,31.467-19.36,48.734
		C281.112,120.145,280.928,120.757,280.643,121.838z"/>
	<radialGradient id="SVGID_6_" cx="150.4404" cy="264.499" r="65.6449" gradientUnits="userSpaceOnUse">
		<stop  offset="1" style="stop-color:#FF0000"/>
		<stop  offset="1" style="stop-color:#FF0000"/>
	</radialGradient>
	<path fill="url(#SVGID_6_)" d="M203.789,226.337c-3.235,2.754-6.056,5.097-8.813,7.514c-13.549,11.875-26.114,24.706-37.536,38.651
		c-1.18,1.441-1.505,2.676-0.958,4.537c5.243,17.811,11.679,35.137,20.443,51.668c-14.091-7.549-27.304-16.417-40.327-26.653
		c-3.057,6.506-6.233,12.559-8.771,18.866c-2.536,6.305-4.435,12.865-7.181,19.556c-2.098-7.325-4.515-14.577-6.223-21.992
		c-2.982-12.941-3.848-26.12-3.445-39.396c0.037-1.213-0.569-2.652-1.323-3.648c-5.086-6.721-9.443-13.817-12.285-21.809
		c-0.591-1.662-0.236-2.662,1.03-3.73c5.122-4.326,11.03-7.235,17.223-9.605c1.515-0.579,2.267-1.402,2.741-2.958
		c5.049-16.592,12.469-32.094,21.722-46.738c0.425-0.673,0.888-1.323,1.396-2.077c1.597,14.451,3.178,28.766,4.791,43.355
		C165.517,228.505,184.321,227.012,203.789,226.337z"/>
	<radialGradient id="SVGID_7_" cx="396.8516" cy="420.502" r="61.6378" gradientUnits="userSpaceOnUse">
		<stop  offset="1" style="stop-color:#FF0000"/>
		<stop  offset="1" style="stop-color:#FF0000"/>
	</radialGradient>
	<path fill="url(#SVGID_7_)" d="M319.795,461.229c12.428-2.918,23.825-8.191,35.027-15.079
		c-11.783-6.175-21.908-14.003-31.721-23.182c5.321,0.563,10.065,1.146,14.825,1.555c14.319,1.227,28.66,1.658,43.017,0.771
		c0.904-0.056,1.906-0.75,2.615-1.412c13.373-12.484,25.077-26.418,35.67-41.309c0.551-0.774,1.123-1.534,2.068-2.821
		c2.002,13.929,1.568,27.168-1.107,40.779c19.045-3.841,36.838-10.187,53.719-20.637
		C443.582,430.703,385.906,462.275,319.795,461.229z"/>
	<radialGradient id="SVGID_8_" cx="145.2124" cy="129.8853" r="56.8127" gradientUnits="userSpaceOnUse">
		<stop  offset="1" style="stop-color:#FF0000"/>
		<stop  offset="1" style="stop-color:#FF0000"/>
	</radialGradient>
	<path fill="url(#SVGID_8_)" d="M140.812,187.108c-5.339-9.136-10.677-18.272-16.104-27.56
		c-9.226,11.318-17.63,23.436-24.132,37.066c-1.602-10.185,13.973-52.427,27.359-74.193c14.003-22.77,31.265-42.694,52.338-59.265
		c-8.479,12.199-15.496,25.151-21.32,39.329c10.41-2.278,20.512-3.875,31.01-3.565c-1.236,0.939-2.514,1.829-3.702,2.826
		c-11.978,10.05-23.965,20.087-35.863,30.229c-1.061,0.905-1.859,2.437-2.199,3.82c-3.979,16.187-5.977,32.638-6.313,49.296
		c-0.011,0.536-0.057,1.072-0.086,1.608C141.47,186.836,141.141,186.972,140.812,187.108z"/>
</g>
</svg>
