<?xml version="1.0" encoding="utf-8"?>
<!-- Generator: Adobe Illustrator 16.0.0, SVG Export Plug-In . SVG Version: 6.00 Build 0)  -->
<!DOCTYPE svg PUBLIC "-//W3C//DTD SVG 1.1//EN" "http://www.w3.org/Graphics/SVG/1.1/DTD/svg11.dtd">
<svg version="1.1" id="Слой_1" xmlns="http://www.w3.org/2000/svg" xmlns:xlink="http://www.w3.org/1999/xlink" x="0px" y="0px"
	 width="42.375px" height="44.556px" viewBox="0 0 42.375 44.556" enable-background="new 0 0 42.375 44.556" xml:space="preserve">
<g>
	<defs>
		<rect id="SVGID_1_" width="42.375" height="44.556"/>
	</defs>
	<clipPath id="SVGID_2_">
		<use xlink:href="#SVGID_1_"  overflow="visible"/>
	</clipPath>
	<linearGradient id="SVGID_3_" gradientUnits="userSpaceOnUse" x1="3.9092" y1="14.8364" x2="42.375" y2="14.8364">
		<stop  offset="0" style="stop-color:#FF0000"/>
		<stop  offset="1" style="stop-color:#FF0000"/>
	</linearGradient>
	<path clip-path="url(#SVGID_2_)" fill="url(#SVGID_3_)" d="M41.222,20.889L21.501,1.166C20.724,0.389,19.706,0,18.688,0
		s-2.037,0.389-2.813,1.166l-10.8,10.798c-1.554,1.554-1.554,4.122,0,5.676l1.79,1.839h4.129L7.14,15.575
		c-0.27-0.271-0.31-0.61-0.31-0.774s0.04-0.491,0.31-0.761l1.426-1.382l6.777,6.821h6.501L11.816,9.401l6.123-6.147
		c0.27-0.27,0.585-0.321,0.749-0.321s0.479,0.034,0.749,0.303l19.722,19.72c0.271,0.271,0.312,0.583,0.312,0.748
		c0,0.163-0.069,0.478-0.341,0.749l-1.118,1.091v4.129l3.185-3.155C42.749,24.961,42.777,22.443,41.222,20.889"/>
	<linearGradient id="SVGID_4_" gradientUnits="userSpaceOnUse" x1="0" y1="28.5864" x2="35.8984" y2="28.5864">
		<stop  offset="0" style="stop-color:#FF0000"/>
		<stop  offset="1" style="stop-color:#FF0000"/>
	</linearGradient>
	<path clip-path="url(#SVGID_2_)" fill="url(#SVGID_4_)" d="M31.969,21.328H4.076C1.879,21.328,0,23.098,0,25.295v10.55h35.898
		v-10.55C35.898,23.098,34.166,21.328,31.969,21.328 M9.748,32.253c-0.779,0-1.484-0.311-2.004-0.811
		c-0.52,0.5-1.226,0.811-2.003,0.811c-1.598,0-2.895-1.295-2.895-2.896c0-1.599,1.296-2.895,2.895-2.895
		c0.778,0,1.484,0.309,2.003,0.809c0.52-0.5,1.225-0.809,2.004-0.809c1.599,0,2.895,1.296,2.895,2.895
		C12.643,30.958,11.347,32.253,9.748,32.253"/>
	<linearGradient id="SVGID_5_" gradientUnits="userSpaceOnUse" x1="0" y1="42.4448" x2="35.8994" y2="42.4448">
		<stop  offset="0" style="stop-color:#FF0000"/>
		<stop  offset="1" style="stop-color:#FF0000"/>
	</linearGradient>
	<path clip-path="url(#SVGID_2_)" fill="url(#SVGID_5_)" d="M0,40.566c0,2.197,1.878,3.99,4.076,3.99h27.893
		c2.197,0,3.931-1.793,3.931-3.99v-0.233H0V40.566z"/>
</g>
</svg>
