<?xml version="1.0" encoding="utf-8"?>
<!-- Generator: Adobe Illustrator 16.0.0, SVG Export Plug-In . SVG Version: 6.00 Build 0)  -->
<!DOCTYPE svg PUBLIC "-//W3C//DTD SVG 1.1//EN" "http://www.w3.org/Graphics/SVG/1.1/DTD/svg11.dtd">
<svg version="1.1" id="Слой_1" xmlns="http://www.w3.org/2000/svg" xmlns:xlink="http://www.w3.org/1999/xlink" x="0px" y="0px"
	 width="179.749px" height="201.917px" viewBox="0 0 179.749 201.917" enable-background="new 0 0 179.749 201.917"
	 xml:space="preserve">
<g>
	<defs>
		<rect id="SVGID_1_" width="179.749" height="201.917"/>
	</defs>
	<clipPath id="SVGID_2_">
		<use xlink:href="#SVGID_1_"  overflow="visible"/>
	</clipPath>
	<linearGradient id="SVGID_3_" gradientUnits="userSpaceOnUse" x1="0" y1="100.958" x2="179.749" y2="100.958">
		<stop  offset="0.0049" style="stop-color:#FF0000"/>
		<stop  offset="1" style="stop-color:#FF0000"/>
	</linearGradient>
	<path clip-path="url(#SVGID_2_)" fill="url(#SVGID_3_)" d="M93.725,175.836c0-2.053,1.65-3.708,3.702-3.708h12.732
		c5.353,3.593,11.398,6.083,17.823,7.246c-0.27,0.062-0.513,0.157-0.792,0.157H97.426C95.375,179.539,93.725,177.876,93.725,175.836
		 M84.676,146.199h6.598c-0.7-2.436-1.213-4.9-1.505-7.409h-5.093c-2.046,0-3.706,1.661-3.706,3.708
		C80.97,144.544,82.63,146.199,84.676,146.199 M57.415,52.632c-4.545-3.054-7.675-9.104-7.675-14.541
		c0-7.676,6.217-13.905,13.898-13.905c7.681,0,13.898,6.229,13.898,13.905c0,5.438-3.136,11.487-7.688,14.541
		c10.894,2.761,18.961,12.227,18.961,19.229c0,8.281-50.339,8.281-50.339,0C38.466,64.857,46.54,55.398,57.415,52.632
		 M56.575,71.026l7.057,7.045l7.063-7.045l-5.94-14.355h0.055l2.308-2.637c-1.124,0.393-2.265,0.636-3.486,0.636
		c-1.208,0-2.362-0.244-3.486-0.648l2.302,2.649h0.061L56.575,71.026z M149.604,193.836l0.014-0.013l-0.177-0.311
		c-0.093,0-0.172,0.022-0.257,0.022H20.165c-6.67,0-12.096-5.425-12.096-12.093V20.151c0-6.665,5.426-12.09,12.096-12.09h129.02
		c6.668,0,12.094,5.425,12.094,12.09v73.822c2.893,1.827,5.627,3.903,8.067,6.333V20.151C169.346,9.036,160.304,0,149.185,0H20.165
		C9.043,0,0,9.036,0,20.151v161.292c0,11.112,9.042,20.149,20.164,20.149h129.02c1.571,0,3.095-0.227,4.573-0.572L149.604,193.836z
		 M42.165,129.314h47.511c0.226-2.479,0.636-4.95,1.26-7.411H42.171c-2.046,0-3.699,1.656-3.699,3.703
		C38.466,127.665,40.119,129.314,42.165,129.314 M42.165,95.551h66.576c1.314-0.956,2.686-1.86,4.116-2.688
		c3.63-2.095,7.525-3.672,11.552-4.728H42.165c-2.046,0-3.699,1.66-3.699,3.711C38.466,93.896,40.119,95.551,42.165,95.551
		 M42.165,112.43h52.266c1.305-2.618,2.838-5.096,4.593-7.41H42.165c-2.046,0-3.699,1.662-3.699,3.708S40.119,112.43,42.165,112.43
		 M168.719,114.684c10.327,17.89,4.178,40.857-13.725,51.173c-17.884,10.321-40.847,4.201-51.174-13.713
		c-10.333-17.884-4.178-40.847,13.701-51.176C135.423,90.637,158.392,96.784,168.719,114.684 M163.354,117.789
		c-8.629-14.932-27.791-20.064-42.716-11.462c-14.937,8.636-20.082,27.773-11.436,42.724c8.609,14.93,27.767,20.075,42.703,11.453
		C166.837,151.862,171.964,132.719,163.354,117.789 M164.42,163.555l-16.105,9.305l12.403,21.471l16.101-9.293L164.42,163.555z
		 M178.498,187.96l-16.118,9.298c2.582,4.464,8.271,5.974,12.714,3.416C179.545,198.104,181.073,192.404,178.498,187.96"/>
</g>
</svg>
